<svg width="19" height="18" viewBox="0 0 19 18" fill="none" xmlns="http://www.w3.org/2000/svg">
<path d="M12.2721 6.20694C12.2721 6.20694 11.0744 4.92253 9.11464 5.1459C7.15484 5.36928 5.79387 6.20694 5.73943 9.33421C5.68499 12.4615 6.66489 14.4719 9.11464 14.4719C11.5644 14.4719 12.2721 13.9134 12.2721 13.9134M12.2721 6.20694C12.2721 6.98876 12.2721 13.9134 12.2721 13.9134M12.2721 6.20694C12.2721 6.20694 12.0543 5.36928 13.0342 5.1459M12.2721 13.9134C12.2721 13.9134 11.9999 14.1368 13.8508 14.4719C15.7017 14.8069 16.7361 13.9134 17.5527 12.2381C18.3692 10.5628 17.8793 6.87707 17.5527 6.20694C17.226 5.53681 16.2317 2.59506 13.0342 1.18097C9.83674 -0.233109 6.85815 0.77821 4.37846 2.18617C2.47533 3.61987 2.25544 3.97318 1.4932 6.20694C0.730952 8.4407 0.730917 12.9641 2.36422 15.4212C3.99752 17.8784 6.8798 17.6776 7.97142 17.2082" stroke="#9795B5"/>
</svg>
