<svg width="17" height="18" viewBox="0 0 17 18" fill="none" xmlns="http://www.w3.org/2000/svg">
<circle cx="8.5" cy="12" r="1.5" fill="#9795B5" stroke="#9795B5"/>
<path d="M1 10.5C1 8.61438 1 7.67157 1.58579 7.08579C2.17157 6.5 3.11438 6.5 5 6.5H12C13.8856 6.5 14.8284 6.5 15.4142 7.08579C16 7.67157 16 8.61438 16 10.5V11.5C16 14.3284 16 15.7426 15.1213 16.6213C14.2426 17.5 12.8284 17.5 10 17.5H7C4.17157 17.5 2.75736 17.5 1.87868 16.6213C1 15.7426 1 14.3284 1 11.5V10.5Z" stroke="#9795B5"/>
<path d="M13 6.5V5C13 2.51472 10.9853 0.5 8.5 0.5V0.5C6.01472 0.5 4 2.51472 4 5V6.5" stroke="#9795B5" stroke-linecap="round"/>
</svg>
