<svg width="14.000000" height="20.000000" viewBox="0 0 14 20" fill="none" xmlns="http://www.w3.org/2000/svg" xmlns:xlink="http://www.w3.org/1999/xlink">
	<desc>
			Created with Pixso.
	</desc>
	<defs/>
	<path id="Shape" d="M13.25 9C13.62 9 13.94 9.28 13.99 9.64L14 9.75L14 10.25C14 13.8 11.24 16.72 7.75 16.98L7.75 19.25C7.75 19.66 7.41 20 7 20C6.62 20 6.3 19.71 6.25 19.35L6.25 19.25L6.25 16.98C2.83 16.73 0.12 13.93 0 10.48L0 10.25L0 9.75C0 9.33 0.33 9 0.75 9C1.12 9 1.44 9.28 1.49 9.64L1.5 9.75L1.5 10.25C1.5 13.07 3.73 15.38 6.53 15.49L6.75 15.5L7.25 15.5C10.07 15.5 12.38 13.26 12.49 10.46L12.5 10.25L12.5 9.75C12.5 9.33 12.83 9 13.25 9ZM7 0C9.2 0 11 1.79 11 4L11 10C11 12.2 9.2 14 7 14C4.79 14 3 12.2 3 10L3 4C3 1.79 4.79 0 7 0ZM7 1.5C5.61 1.5 4.5 2.61 4.5 4L4.5 10C4.5 11.38 5.61 12.5 7 12.5C8.38 12.5 9.5 11.38 9.5 10L9.5 4C9.5 2.61 8.38 1.5 7 1.5Z" fill="#8A8A8A" fill-opacity="1.000000" fill-rule="nonzero"/>
</svg>
