<svg width="16.000000" height="15.000000" viewBox="0 0 16 15" fill="none" xmlns="http://www.w3.org/2000/svg" xmlns:xlink="http://www.w3.org/1999/xlink">
	<desc>
			Created with Pixso.
	</desc>
	<defs/>
	<path id="Shape" d="M3.39 14.6C3.72 15.04 4.35 15.12 4.79 14.8L8.81 11.84L13.39 11.84C14.83 11.84 16 10.69 16 9.27L16 2.56C16 1.14 14.83 0 13.39 0L2.6 0C1.16 0 0 1.14 0 2.56L0 9.27C0 10.69 1.16 11.84 2.6 11.84L3.19 11.84L3.19 14.01C3.19 14.22 3.26 14.43 3.39 14.6ZM13.39 10.84L8.48 10.84L4.2 13.99L4.2 13.99L4.19 14L4.19 10.84L2.6 10.84C1.7 10.84 1 10.12 1 9.27L1 2.56C1 1.71 1.7 1 2.6 1L13.39 1C14.29 1 15 1.71 15 2.56L15 9.27C15 10.12 14.29 10.84 13.39 10.84ZM8.5 3C8.5 2.72 8.27 2.5 8 2.5C7.72 2.5 7.5 2.72 7.5 3L7.5 9C7.5 9.27 7.72 9.5 8 9.5C8.27 9.5 8.5 9.27 8.5 9L8.5 3ZM5.5 4C5.5 3.72 5.27 3.5 5 3.5C4.72 3.5 4.5 3.72 4.5 4L4.5 8C4.5 8.27 4.72 8.5 5 8.5C5.27 8.5 5.5 8.27 5.5 8L5.5 4ZM11.5 4.5C11.5 4.22 11.27 4 11 4C10.72 4 10.5 4.22 10.5 4.5L10.5 7.5C10.5 7.77 10.72 8 11 8C11.27 8 11.5 7.77 11.5 7.5L11.5 4.5Z" fill="#C8D1DA" fill-opacity="1.000000" fill-rule="evenodd"/>
</svg>
