<svg width="21.000000" height="21.000000" viewBox="0 0 21 21" fill="none" xmlns="http://www.w3.org/2000/svg" xmlns:xlink="http://www.w3.org/1999/xlink">
	<desc>
			Created with Pixso.
	</desc>
	<defs/>
	<path id="Shape" d="M10 -0.01C15.52 -0.01 20 4.47 20 10C20 15.52 15.52 20 10 20C4.47 20 -0.01 15.52 -0.01 10C-0.01 4.47 4.47 -0.01 10 -0.01ZM10 1.49C5.3 1.49 1.49 5.3 1.49 10C1.49 14.69 5.3 18.5 10 18.5C14.69 18.5 18.5 14.69 18.5 10C18.5 5.3 14.69 1.49 10 1.49ZM6.46 12.78C7.31 13.86 8.6 14.5 10 14.5C11.39 14.5 12.68 13.86 13.53 12.78C13.79 12.46 14.26 12.4 14.58 12.66C14.91 12.92 14.96 13.39 14.71 13.71C13.58 15.14 11.86 16 10 16C8.13 16 6.41 15.14 5.28 13.71C5.02 13.38 5.08 12.91 5.4 12.65C5.73 12.4 6.2 12.45 6.46 12.78ZM7 6.75C7.69 6.75 8.24 7.31 8.24 8C8.24 8.69 7.69 9.24 7 9.24C6.31 9.24 5.75 8.69 5.75 8C5.75 7.31 6.31 6.75 7 6.75ZM13 6.75C13.69 6.75 14.24 7.31 14.24 8C14.24 8.69 13.69 9.24 13 9.24C12.31 9.24 11.75 8.69 11.75 8C11.75 7.31 12.31 6.75 13 6.75Z" fill="#8A8A8A" fill-opacity="1.000000" fill-rule="nonzero"/>
</svg>
