<svg width="20.000000" height="21.000000" viewBox="0 0 20 21" fill="none" xmlns="http://www.w3.org/2000/svg" xmlns:xlink="http://www.w3.org/1999/xlink">
	<desc>
			Created with Pixso.
	</desc>
	<defs/>
	<path id="Shape" d="M8.77 1.74C11.11 -0.61 14.91 -0.61 17.25 1.74C19.53 4.02 19.59 7.69 17.43 10.04L17.24 10.24L8.44 19.04L8.4 19.07C6.94 20.38 4.69 20.34 3.28 18.93C1.96 17.61 1.84 15.55 2.91 14.09C2.94 14.05 2.96 14 3 13.96L3.05 13.9L3.14 13.81L3.28 13.67L3.28 13.67L10.72 6.22C10.98 5.95 11.4 5.92 11.69 6.14L11.78 6.21C12.04 6.48 12.07 6.9 11.85 7.19L11.78 7.27L4.18 14.89C3.47 15.76 3.52 17.06 4.33 17.87C5.16 18.7 6.48 18.74 7.36 17.99L16.19 9.16C17.95 7.41 17.95 4.56 16.19 2.8C14.49 1.1 11.76 1.04 9.99 2.64L9.83 2.8L9.81 2.81L0.28 12.35C-0.02 12.64 -0.49 12.64 -0.78 12.35C-1.05 12.08 -1.07 11.67 -0.86 11.37L-0.78 11.29L8.77 1.74L8.77 1.74Z" fill="#8A8A8A" fill-opacity="1.000000" fill-rule="nonzero"/>
</svg>
