<svg width="14.000000" height="14.000000" viewBox="0 0 14 14" fill="none" xmlns="http://www.w3.org/2000/svg" xmlns:xlink="http://www.w3.org/1999/xlink">
	<desc>
			Created with Pixso.
	</desc>
	<defs/>
	<path id="Shape" d="M5.5 0C8.53 0 11 2.46 11 5.5C11 6.83 10.52 8.06 9.72 9.01L13.85 13.14C14.04 13.34 14.04 13.65 13.85 13.85C13.67 14.02 13.41 14.04 13.21 13.91L13.14 13.85L9.01 9.72C8.06 10.52 6.83 11 5.5 11C2.46 11 0 8.53 0 5.5C0 2.46 2.46 0 5.5 0ZM5.5 1C3.01 1 1 3.01 1 5.5C1 7.98 3.01 10 5.5 10C7.98 10 10 7.98 10 5.5C10 3.01 7.98 1 5.5 1Z" fill="#C8D1DA" fill-opacity="1.000000" fill-rule="nonzero"/>
</svg>
