<?xml version="1.0" standalone="no"?>
<svg version="1.0" xmlns="http://www.w3.org/2000/svg"
 width="491.000000pt" height="508.000000pt" viewBox="0 0 491.000000 508.000000"
 preserveAspectRatio="xMidYMid meet">

<g transform="translate(0.000000,508.000000) scale(0.100000,-0.100000)"
fill="#0F80D7" stroke="none">
<path d="M2200 4473 c-8 -2 -253 -4 -545 -6 l-530 -2 -56 -28 c-110 -55 -180
-135 -218 -250 -21 -62 -21 -73 -18 -1702 1 -1040 6 -1645 12 -1655 5 -8 10
-19 11 -25 9 -52 68 -132 134 -184 78 -61 141 -81 276 -84 69 -1 116 2 118 8
3 7 5 7 5 0 1 -7 315 -9 924 -8 1106 1 1023 0 1039 16 7 8 19 12 25 10 19 -7
94 42 145 92 48 49 103 139 94 154 -4 5 0 11 6 13 10 4 14 236 16 1124 l2
1119 -277 0 c-174 0 -281 -4 -285 -10 -5 -7 -8 -7 -8 0 0 6 -95 10 -261 11
-197 1 -263 5 -269 14 -4 7 -12 10 -18 6 -6 -3 -12 -3 -14 1 -1 5 -25 19 -52
33 -64 32 -139 107 -172 172 -53 105 -54 121 -54 669 0 279 -4 510 -8 512 -4
2 -14 2 -22 0z"/>
<path d="M2520 3940 c0 -432 2 -466 19 -506 34 -77 19 -75 550 -72 l470 3
-519 519 -520 520 0 -464z"/>
</g>
</svg>
