<svg width="30" height="30" viewBox="0 0 30 30" fill="none" xmlns="http://www.w3.org/2000/svg">
<path d="M29.9938 15.333C29.9938 14.0997 29.8917 13.1997 29.6707 12.2664H15.2998V17.833H23.7352C23.5652 19.2163 22.6468 21.2997 20.6059 22.6996L20.5773 22.886L25.1211 26.3356L25.4359 26.3664C28.3271 23.7497 29.9938 19.8996 29.9938 15.333Z" fill="#4285F4"/>
<path d="M15.3211 30.0001C19.4537 30.0001 22.9231 28.6667 25.4572 26.3668L20.6272 22.7C19.3347 23.5834 17.6 24.2 15.3211 24.2C11.2735 24.2 7.83808 21.5835 6.61346 17.9668L6.43396 17.9817L1.70925 21.5651L1.64746 21.7334C4.16446 26.6334 9.33459 30.0001 15.3211 30.0001Z" fill="#34A853"/>
<path d="M6.60547 17.9666C6.28234 17.0333 6.09534 16.0332 6.09534 15C6.09534 13.9666 6.28234 12.9666 6.58847 12.0333L6.57991 11.8345L1.79599 8.1936L1.63946 8.26656C0.602086 10.2999 0.00683594 12.5833 0.00683594 15C0.00683594 17.4166 0.602086 19.6999 1.63946 21.7332L6.60547 17.9666Z" fill="#FBBC05"/>
<path d="M15.3211 5.79972C18.1952 5.79972 20.134 7.01638 21.2395 8.03311L25.5592 3.89976C22.9062 1.4831 19.4537 -0.000244141 15.3211 -0.000244141C9.33459 -0.000244141 4.16446 3.3664 1.64746 8.26636L6.59646 12.0331C7.83808 8.41642 11.2735 5.79972 15.3211 5.79972Z" fill="#EB4335"/>
</svg>
