<svg width="13.000000" height="12.000000" viewBox="0 0 13 12" fill="none" xmlns="http://www.w3.org/2000/svg" xmlns:xlink="http://www.w3.org/1999/xlink">
	<desc>
			Created with Pixso.
	</desc>
	<defs/>
	<path id="Shape" d="M6.8 6C7.68 6 8.39 6.71 8.39 7.6L8.39 8.8C8.39 10.44 6.72 11.6 4 11.6C1.27 11.6 -0.4 10.44 -0.4 8.8L-0.4 7.6C-0.4 6.71 0.31 6 1.2 6L6.8 6ZM10.8 6C11.68 6 12.39 6.71 12.39 7.6L12.39 8C12.39 9.67 11.14 10.8 8.8 10.8C8.68 10.8 8.57 10.79 8.46 10.79C8.89 10.29 9.15 9.68 9.19 8.99L9.2 8.8L9.2 7.6C9.2 7.04 9.01 6.53 8.69 6.13L8.58 5.99L10.8 6ZM4 -0.4C5.54 -0.4 6.8 0.85 6.8 2.39C6.8 3.94 5.54 5.2 4 5.2C2.45 5.2 1.2 3.94 1.2 2.39C1.2 0.85 2.45 -0.4 4 -0.4ZM9.6 1.2C10.7 1.2 11.6 2.09 11.6 3.2C11.6 4.3 10.7 5.2 9.6 5.2C8.49 5.2 7.6 4.3 7.6 3.2C7.6 2.09 8.49 1.2 9.6 1.2Z" fill="#7289D9" fill-opacity="1.000000" fill-rule="nonzero"/>
</svg>
