<svg width="16.000000" height="16.000000" viewBox="0 0 16 16" fill="none" xmlns="http://www.w3.org/2000/svg" xmlns:xlink="http://www.w3.org/1999/xlink">
	<desc>
			Created with Pixso.
	</desc>
	<defs>
		<clipPath id="clip9_5547">
			<rect id="Megaphone" width="16.000000" height="16.000000" fill="white" fill-opacity="0"/>
		</clipPath>
	</defs>
	<g clip-path="url(#clip9_5547)">
		<path id="Shape" d="M12.89 2.68C13.65 2.47 14.39 3.05 14.39 3.84L14.39 12.08C14.39 12.9 13.59 13.48 12.82 13.22L9.01 11.96C8.63 12.92 7.69 13.6 6.6 13.6C5.16 13.6 4 12.43 4 11L4 10.28L2.42 9.76C1.93 9.59 1.6 9.14 1.6 8.62L1.6 6.61C1.6 6.07 1.96 5.59 2.49 5.45L12.89 2.68ZM4.8 10.55L4.8 11C4.8 11.99 5.6 12.79 6.6 12.79C7.34 12.79 7.98 12.34 8.25 11.7L4.8 10.55Z" fill="#7289D9" fill-opacity="1.000000" fill-rule="nonzero"/>
	</g>
</svg>
