<svg width="22" height="22" viewBox="0 0 22 22" fill="none" xmlns="http://www.w3.org/2000/svg">
    <path fill-rule="evenodd" clip-rule="evenodd" d="M0.322183 21.6778C0.751759 22.1074 1.44824 22.1074 1.87782 21.6778L7.80379 15.7518C9.29394 16.9102 11.1664 17.6 13.2 17.6C18.0601 17.6 22 13.6601 22 8.8C22 3.93989 18.0601 0 13.2 0C8.33989 0 4.4 3.93989 4.4 8.8C4.4 10.8336 5.08979 12.7061 6.24816 14.1962L0.322183 20.1222C-0.107394 20.5518 -0.107394 21.2482 0.322183 21.6778ZM13.2 15.4C16.8451 15.4 19.8 12.4451 19.8 8.8C19.8 5.15492 16.8451 2.2 13.2 2.2C9.55492 2.2 6.6 5.15492 6.6 8.8C6.6 12.4451 9.55492 15.4 13.2 15.4Z" fill="white" fill-opacity="0.786"/>
</svg>
