<svg width="10" height="13" viewBox="0 0 10 13" fill="none" xmlns="http://www.w3.org/2000/svg">
<path d="M5.0002 0.599609C6.32568 0.599609 7.4002 1.67413 7.4002 2.99961V3.79961H8.2002C9.08385 3.79961 9.8002 4.51595 9.8002 5.39961V10.9996C9.8002 11.8833 9.08385 12.5996 8.2002 12.5996H1.8002C0.91654 12.5996 0.200195 11.8833 0.200195 10.9996V5.39961C0.200195 4.51595 0.91654 3.79961 1.8002 3.79961H2.6002V2.99961C2.6002 1.67413 3.67471 0.599609 5.0002 0.599609ZM5.0002 7.39961C4.55837 7.39961 4.2002 7.75778 4.2002 8.19961C4.2002 8.64144 4.55837 8.99961 5.0002 8.99961C5.44202 8.99961 5.8002 8.64144 5.8002 8.19961C5.8002 7.75778 5.44202 7.39961 5.0002 7.39961ZM5.0002 2.19961C4.55837 2.19961 4.2002 2.55778 4.2002 2.99961V3.79961H5.8002V2.99961C5.8002 2.55778 5.44202 2.19961 5.0002 2.19961Z" fill="#45B8B1"/>
</svg>
