<svg width="30" height="30" viewBox="0 0 30 30" fill="none" xmlns="http://www.w3.org/2000/svg">
<path d="M15 0C6.71566 0 0 6.71566 0 15C0 23.2843 6.71566 30 15 30C23.2843 30 30 23.2843 30 15C30 6.71566 23.2843 0 15 0Z" fill="#40B3E0"/>
<path d="M22.3009 8.62852L19.6217 22.1364C19.6217 22.1364 19.2471 23.0732 18.2167 22.6235L12.0341 17.8835L9.78597 16.797L6.00151 15.5229C6.00151 15.5229 5.42073 15.3169 5.36448 14.8672C5.30835 14.4176 6.02026 14.1741 6.02026 14.1741L21.0643 8.27251C21.0643 8.27251 22.3009 7.72923 22.3009 8.62852Z" fill="white"/>
<path d="M11.5581 21.9847C11.5581 21.9847 11.3776 21.9678 11.1527 21.2558C10.928 20.5438 9.78516 16.7969 9.78516 16.7969L18.8715 11.0266C18.8715 11.0266 19.3962 10.7081 19.3774 11.0266C19.3774 11.0266 19.4711 11.0827 19.19 11.345C18.909 11.6074 12.052 17.7711 12.052 17.7711" fill="#D2E5F1"/>
<path d="M14.3887 19.701L11.9433 21.9306C11.9433 21.9306 11.7521 22.0757 11.543 21.9848L12.0113 17.8433" fill="#B5CFE4"/>
</svg>
