<svg width="30" height="30" viewBox="0 0 30 30" fill="none" xmlns="http://www.w3.org/2000/svg">
<path d="M15 30C23.2843 30 30 23.2843 30 15C30 6.71573 23.2843 0 15 0C6.71573 0 0 6.71573 0 15C0 23.2843 6.71573 30 15 30Z" fill="#2787F5"/>
<path d="M17.1776 7.9541H12.8517C8.90361 7.9541 7.96875 8.88897 7.96875 12.837V17.163C7.96875 21.111 8.90361 22.0459 12.8517 22.0459H17.1776C21.1257 22.0459 22.0605 21.111 22.0605 17.163V12.837C22.0605 8.88897 21.1157 7.9541 17.1776 7.9541ZM19.3456 18.0082H18.3202C17.9323 18.0082 17.8131 17.7 17.117 16.9939C16.5103 16.408 16.2419 16.3277 16.0916 16.3277C15.8827 16.3277 15.8229 16.3863 15.8229 16.6758V17.6007C15.8229 17.8494 15.7433 17.9985 15.087 17.9985C14.003 17.9985 12.7998 17.3423 11.9543 16.1188C10.6813 14.3288 10.3333 12.9861 10.3333 12.7078C10.3333 12.5587 10.3919 12.4195 10.6813 12.4195H11.7067C11.9654 12.4195 12.0647 12.5388 12.1641 12.8174C12.6712 14.2793 13.5167 15.5622 13.8633 15.5622C13.9925 15.5622 14.0522 15.5036 14.0522 15.1743V13.6626C14.0124 12.9665 13.6444 12.9067 13.6444 12.6583C13.6444 12.5391 13.7438 12.4195 13.9031 12.4195H15.5145C15.7333 12.4195 15.8127 12.5388 15.8127 12.7975V14.8359C15.8127 15.0548 15.912 15.1342 15.9718 15.1342C16.101 15.1342 16.2105 15.0545 16.449 14.816C17.185 13.9907 17.712 12.7178 17.712 12.7178C17.7817 12.5687 17.901 12.4295 18.1597 12.4295H19.1851C19.4933 12.4295 19.563 12.5886 19.4933 12.8074C19.3641 13.4042 18.111 15.1743 18.111 15.1743C18.0018 15.3533 17.9619 15.433 18.111 15.6316C18.2203 15.7808 18.5798 16.089 18.8171 16.3676C19.2548 16.8656 19.5929 17.2825 19.6822 17.5708C19.7833 17.8591 19.6339 18.0082 19.3456 18.0082Z" fill="white"/>
</svg>
